<?xml version="1.0" standalone="no"?>
<!DOCTYPE svg PUBLIC "-//W3C//DTD SVG 20010904//EN"
 "http://www.w3.org/TR/2001/REC-SVG-20010904/DTD/svg10.dtd">
<svg version="1.0" xmlns="http://www.w3.org/2000/svg"
 width="90.000000pt" height="90.000000pt" viewBox="0 0 90.000000 90.000000"
 preserveAspectRatio="xMidYMid meet">
<metadata>
Created by potrace 1.11, written by Peter Selinger 2001-2013
</metadata>
<g transform="translate(0.000000,90.000000) scale(0.100000,-0.100000)"
fill="#000000" stroke="none">
<path d="M249 817 c-25 -28 -76 -69 -112 -91 -37 -21 -71 -44 -77 -52 -16 -18
85 -631 108 -656 14 -16 40 -18 282 -18 242 0 268 2 283 18 22 24 122 639 107
657 -6 7 -40 30 -77 51 -36 22 -88 63 -114 93 -27 30 -50 53 -52 50 -2 -2 -25
-34 -51 -72 -26 -37 -58 -75 -72 -83 -22 -15 -26 -15 -49 0 -14 9 -46 48 -72
86 -27 38 -50 69 -53 69 -3 1 -26 -23 -51 -52z m82 -143 l38 -37 -32 -63 c-17
-35 -34 -64 -37 -64 -3 0 -22 34 -42 75 l-37 74 32 25 c18 14 34 26 37 26 2 0
21 -16 41 -36z m315 11 l34 -26 -37 -74 c-21 -41 -40 -75 -43 -75 -3 0 -20 29
-37 64 l-32 63 37 35 c20 19 39 36 41 37 2 0 19 -10 37 -24z m-411 -155 c31
-64 55 -100 65 -100 10 0 32 33 59 89 l44 89 47 0 47 0 44 -89 c27 -56 49 -89
59 -89 10 0 34 36 65 100 47 95 75 125 75 79 0 -11 -18 -128 -40 -259 -22
-131 -40 -241 -40 -244 0 -3 -94 -6 -210 -6 -116 0 -210 3 -210 6 0 3 -18 113
-40 244 -22 131 -40 248 -40 259 0 46 28 16 75 -79z"/>
<path d="M433 484 c-8 -21 13 -42 28 -27 13 13 5 43 -11 43 -6 0 -13 -7 -17
-16z"/>
<path d="M433 334 c-8 -21 13 -42 28 -27 13 13 5 43 -11 43 -6 0 -13 -7 -17
-16z"/>
<path d="M433 184 c-8 -21 13 -42 28 -27 13 13 5 43 -11 43 -6 0 -13 -7 -17
-16z"/>
</g>
</svg>
