<svg width="16" height="16" viewBox="0 0 16 16" fill="none" xmlns="http://www.w3.org/2000/svg">
<path fill-rule="evenodd" clip-rule="evenodd" d="M5.492 9.992V10.492H5.992C6.268 10.492 6.492 10.716 6.492 10.992C6.492 11.268 6.268 11.492 5.992 11.492H5.492V11.992C5.492 12.268 5.268 12.492 4.992 12.492C4.716 12.492 4.492 12.268 4.492 11.992V11.492H3.992C3.716 11.492 3.492 11.268 3.492 10.992C3.492 10.716 3.716 10.492 3.992 10.492H4.492V9.992C4.492 9.716 4.716 9.492 4.992 9.492C5.268 9.492 5.492 9.716 5.492 9.992ZM5.5 4C5.223 4 5 3.776 5 3.5C5 3.223 5.223 3 5.5 3C5.776 3 6 3.223 6 3.5C6 3.776 5.776 4 5.5 4ZM13.705 8.115L7.586 2H4V5.586L4.468 6.054C4.645 6.034 4.817 6 5 6C7.762 6 10 8.238 10 11C10 11.181 9.966 11.353 9.946 11.53L10.118 11.702C10.509 12.092 11.142 12.092 11.532 11.702L13.705 9.529C14.096 9.138 14.096 8.506 13.705 8.115ZM2 11C2 12.657 3.343 14 5 14C6.657 14 8 12.657 8 11C8 9.343 6.657 8 5 8C3.343 8 2 9.343 2 11ZM15.119 10.943L12.947 13.116C11.95 14.112 10.43 14.253 9.277 13.554C8.403 15.013 6.824 16 5 16C2.238 16 0 13.762 0 11C0 9.212 0.945 7.655 2.357 6.771L2.293 6.707C2.112 6.526 2 6.276 2 6V1C2 0.447 2.447 0 3 0H8C8.276 0 8.526 0.112 8.707 0.293L15.119 6.701C16.291 7.873 16.291 9.772 15.119 10.943Z" fill="#F7D398"/>
</svg>
