<svg width="48" height="48" viewBox="0 0 48 48" fill="none" xmlns="http://www.w3.org/2000/svg">
<path fill-rule="evenodd" clip-rule="evenodd" d="M32.313 2.60516C32.4995 2.08532 32.2293 1.51271 31.7094 1.32619C29.7469 0.622047 27.6931 0.175837 25.5886 0.00339408C25.0381 -0.0417075 24.5553 0.36795 24.5102 0.91839C24.4651 1.46883 24.8748 1.95161 25.4252 1.99671C27.3544 2.15479 29.236 2.5636 31.034 3.20869C31.5538 3.39521 32.1264 3.12499 32.313 2.60516ZM44.3439 11.8393C44.6223 12.3163 44.4614 12.9287 43.9844 13.2071C43.5074 13.4855 42.8951 13.3246 42.6166 12.8477C41.6483 11.1889 40.4658 9.66266 39.1022 8.30897C38.7102 7.91988 38.7079 7.28672 39.097 6.89477C39.4861 6.50282 40.1192 6.50051 40.5112 6.88961C41.9981 8.36567 43.2877 10.0301 44.3439 11.8393ZM46.0945 28.8584C46.6387 28.9526 47.1562 28.5879 47.2504 28.0437C47.4807 26.7132 47.5992 25.3584 47.603 23.9894C47.6031 23.198 47.5709 22.4681 47.5048 21.736C47.4551 21.186 46.9689 20.7804 46.4188 20.8301C45.8688 20.8798 45.4632 21.366 45.5129 21.916C45.5736 22.5876 45.6031 23.2573 45.603 23.9865C45.5996 25.2403 45.4909 26.4828 45.2797 27.7025C45.1855 28.2467 45.5503 28.7642 46.0945 28.8584ZM39.0487 42.2924C38.6261 42.6481 37.9953 42.5938 37.6396 42.1713C37.284 41.7487 37.3383 41.1179 37.7608 40.7623C39.2307 39.5251 40.5347 38.1005 41.6366 36.5271C41.9534 36.0747 42.577 35.9648 43.0293 36.2816C43.4817 36.5985 43.5916 37.222 43.2748 37.6744C42.0732 39.3902 40.6514 40.9435 39.0487 42.2924ZM23.6031 47.9224C23.0508 47.9224 22.6031 47.4747 22.6031 46.9224C22.6031 46.3701 23.0508 45.9224 23.6031 45.9224C25.5454 45.9224 27.4536 45.6709 29.2941 45.1795C29.8277 45.037 30.3758 45.354 30.5182 45.8876C30.6607 46.4212 30.3437 46.9693 29.8101 47.1118C27.8016 47.648 25.72 47.9224 23.6031 47.9224ZM15.1844 1.44072C15.7016 1.24697 16.2779 1.50916 16.4717 2.02635C16.6654 2.54353 16.4032 3.11986 15.886 3.31361C14.086 3.98796 12.3845 4.89652 10.8226 6.01321C10.3734 6.33442 9.74876 6.23061 9.42755 5.78134C9.10634 5.33207 9.21015 4.70747 9.65942 4.38626C11.3633 3.16809 13.2198 2.17671 15.1844 1.44072ZM4.08562 11.7072C3.60543 11.4344 2.99499 11.6025 2.72216 12.0827C1.68837 13.9021 0.896033 15.8512 0.368834 17.886C0.230311 18.4206 0.55142 18.9663 1.08605 19.1048C1.62068 19.2434 2.16638 18.9222 2.3049 18.3876C2.78786 16.5236 3.51375 14.738 4.46107 13.0707C4.7339 12.5905 4.56581 11.9801 4.08562 11.7072ZM0.0174152 28.3852C-0.0846796 27.8424 0.272555 27.3196 0.815321 27.2175C1.35809 27.1154 1.88085 27.4727 1.98295 28.0154C2.33954 29.9112 2.94314 31.7411 3.77516 33.4663C4.01506 33.9638 3.80627 34.5615 3.30881 34.8014C2.81136 35.0413 2.21361 34.8325 1.9737 34.3351C1.06558 32.452 0.406641 30.4544 0.0174152 28.3852ZM8.24907 41.0764C7.89871 41.5033 7.96078 42.1334 8.3877 42.4838C10.0072 43.8128 11.794 44.926 13.7032 45.7916C14.2062 46.0197 14.7988 45.7968 15.0269 45.2938C15.2549 44.7908 15.032 44.1981 14.529 43.9701C12.7793 43.1768 11.1414 42.1563 9.65647 40.9377C9.22954 40.5874 8.59943 40.6494 8.24907 41.0764Z" fill="#E2E0E6"/>
<path fill-rule="evenodd" clip-rule="evenodd" d="M25 23H31C31.5523 23 32 23.4477 32 24C32 24.5523 31.5523 25 31 25H25V31C25 31.5523 24.5523 32 24 32C23.4477 32 23 31.5523 23 31V25H17C16.4477 25 16 24.5523 16 24C16 23.4477 16.4477 23 17 23H23V17C23 16.4477 23.4477 16 24 16C24.5523 16 25 16.4477 25 17V23Z" fill="#E2E0E6"/>
</svg>
