<svg width="16" height="16" viewBox="0 0 16 16" fill="none" xmlns="http://www.w3.org/2000/svg">
<path fill-rule="evenodd" clip-rule="evenodd" d="M16 15C16 15.553 15.553 16 15 16H1C0.447 16 0 15.553 0 15V1C0 0.447 0.447 0 1 0C1.553 0 2 0.447 2 1V14H15C15.553 14 16 14.447 16 15ZM9 3C7.343 3 6 4.343 6 6C6 7.657 7.343 9 9 9C10.657 9 12 7.657 12 6C12 4.343 10.657 3 9 3ZM16 2C16 2.553 15.553 3 15 3C14.724 3 14.474 2.888 14.293 2.707L14 2.414L13.169 3.246C13.691 4.036 14 4.981 14 6C14 7.019 13.691 7.964 13.169 8.754L15.707 11.293C15.888 11.474 16 11.724 16 12C16 12.553 15.553 13 15 13C14.724 13 14.474 12.888 14.293 12.707L11.754 10.169C10.964 10.691 10.019 11 9 11C7.981 11 7.036 10.691 6.246 10.169L4.707 11.707C4.526 11.888 4.276 12 4 12C3.447 12 3 11.553 3 11C3 10.724 3.112 10.474 3.293 10.293L4.831 8.754C4.309 7.964 4 7.019 4 6C4 3.238 6.238 1 9 1C10.019 1 10.964 1.309 11.754 1.831L13.293 0.293C13.474 0.112 13.724 0 14 0C14.276 0 14.526 0.112 14.707 0.293L15.707 1.293C15.888 1.474 16 1.724 16 2Z" fill="#32DC9B"/>
</svg>
