<svg width="16" height="16" viewBox="0 0 16 16" fill="none" xmlns="http://www.w3.org/2000/svg">
<path fill-rule="evenodd" clip-rule="evenodd" d="M1.5 9C0.671573 9 0 8.32843 0 7.5C0 6.67157 0.671573 6 1.5 6C2.32843 6 3 6.67157 3 7.5C3 8.32843 2.32843 9 1.5 9ZM8 9C7.17157 9 6.5 8.32843 6.5 7.5C6.5 6.67157 7.17157 6 8 6C8.82843 6 9.5 6.67157 9.5 7.5C9.5 8.32843 8.82843 9 8 9ZM13 7.5C13 8.32843 13.6716 9 14.5 9C15.3284 9 16 8.32843 16 7.5C16 6.67157 15.3284 6 14.5 6C13.6716 6 13 6.67157 13 7.5Z" fill="#272626"/>
</svg>
