<svg width="16" height="20" viewBox="0 0 16 20" fill="none" xmlns="http://www.w3.org/2000/svg">
<path fill-rule="evenodd" clip-rule="evenodd" d="M10 2H9.589C10.043 2.566 10.439 3.247 10.782 4H12.62C11.917 2.771 11.008 2 10 2ZM2 10C2 14.418 3.791 18 6 18C8.209 18 10 14.418 10 10C10 5.582 8.209 2 6 2C3.791 2 2 5.582 2 10ZM10 18C11.013 18 11.931 17.243 12.631 16H10.755C10.416 16.745 10.039 17.438 9.589 18H10ZM13.949 11H11.964C11.899 12.067 11.707 13.059 11.458 14H13.436C13.696 13.094 13.881 12.086 13.949 11ZM13.965 9C13.893 7.917 13.709 6.906 13.445 6H11.487C11.733 6.931 11.868 7.948 11.935 9H13.965ZM16 10C16 15.522 13.313 20 10 20H6C2.687 20 0 15.522 0 10C0 4.478 2.687 0 6 0H10C13.313 0 16 4.478 16 10Z" fill="#FDA740"/>
</svg>
