<svg width="16" height="16" viewBox="0 0 16 16" fill="none" xmlns="http://www.w3.org/2000/svg">
<path fill-rule="evenodd" clip-rule="evenodd" d="M9 8.58589L7.414 6.99989L12 2.41389L13.586 3.99989L9 8.58589ZM4.488 13.0969L2.374 13.6259L2.903 11.5109L6 8.41389L7.586 9.99989L4.488 13.0969ZM12.707 0.292893C12.526 0.111893 12.276 -0.000106812 12 -0.000106812C11.724 -0.000106812 11.474 0.111893 11.293 0.292893L1.293 10.2929L1.31 10.3099C1.189 10.4359 1.092 10.5859 1.048 10.7619L1.03 10.7569L0.03 14.7569L0.048 14.7619C0.028 14.8399 0 14.9159 0 14.9999C0 15.5519 0.447 15.9999 1 15.9999C1.085 15.9999 1.162 15.9779 1.239 15.9579L1.242 15.9699L5.242 14.9699L5.238 14.9519C5.414 14.9079 5.564 14.8109 5.69 14.6899L5.707 14.7069L15.707 4.70689C15.888 4.52589 16 4.27589 16 3.99989C16 3.72389 15.888 3.47389 15.707 3.29289L12.707 0.292893Z" fill="#32DC9B"/>
</svg>
