<svg width="16" height="16" viewBox="0 0 16 16" fill="none" xmlns="http://www.w3.org/2000/svg">
<path fill-rule="evenodd" clip-rule="evenodd" d="M13 12C12.448 12 12 12.447 12 13C12 13.553 12.448 14 13 14C13.552 14 14 13.553 14 13C14 12.447 13.552 12 13 12ZM3 2C2.448 2 2 2.448 2 3C2 3.553 2.448 4 3 4C3.552 4 4 3.553 4 3C4 2.448 3.552 2 3 2ZM13 16C11.696 16 10.597 15.163 10.184 14H7V16H5V12C5 11.447 4.552 11 4 11H0V9H2V5.816C0.837 5.403 0 4.305 0 3C0 1.343 1.343 0 3 0C4.657 0 6 1.343 6 3C6 4.305 5.163 5.403 4 5.816V9C5.657 9 7 10.343 7 12H10.184C10.597 10.838 11.696 10 13 10C14.657 10 16 11.343 16 13C16 14.657 14.657 16 13 16Z" fill="#32DC9B"/>
</svg>
