<svg width="18" height="18" viewBox="0 0 18 18" fill="none" xmlns="http://www.w3.org/2000/svg">
<path fill-rule="evenodd" clip-rule="evenodd" d="M8.50353 8.50004C8.50353 8.22404 8.72753 8.00004 9.00353 8.00004C9.27953 8.00004 9.50353 8.22404 9.50353 8.50004C9.50353 8.77604 9.27953 9.00004 9.00353 9.00004C8.72753 9.00004 8.50353 8.77604 8.50353 8.50004ZM8.50353 11.5C8.50353 11.224 8.72753 11 9.00353 11C9.27953 11 9.50353 11.224 9.50353 11.5C9.50353 11.776 9.27953 12 9.00353 12C8.72753 12 8.50353 11.776 8.50353 11.5ZM8.50353 14.5C8.50353 14.224 8.72753 14 9.00353 14C9.27953 14 9.50353 14.224 9.50353 14.5C9.50353 14.776 9.27953 15 9.00353 15C8.72753 15 8.50353 14.776 8.50353 14.5ZM12.447 9.22304C12.361 9.37604 12.204 9.48304 12.017 9.48304C11.824 9.48304 11.661 9.37104 11.578 9.21104L9.783 5.67704C9.529 5.79904 9.272 5.91704 9 6.01104C8.729 5.91704 8.473 5.79904 8.221 5.67604L6.447 9.22304C6.361 9.37604 6.204 9.48304 6.017 9.48304C5.824 9.48304 5.661 9.37104 5.578 9.21104L3.593 5.30304C3.417 5.40004 3.249 5.48904 3.107 5.56004L4.847 16H13.153L14.893 5.56004C14.751 5.48904 14.584 5.40004 14.407 5.30304L12.447 9.22304ZM12.235 3.70904C11.801 4.27804 11.26 4.76904 10.649 5.18004L12 7.88204L13.549 4.78404C13.42 4.69804 13.291 4.61004 13.166 4.51704C12.819 4.25704 12.504 3.97204 12.235 3.70904ZM4.834 4.51704C4.709 4.61004 4.58 4.69804 4.451 4.78404L6 7.88204L7.354 5.17404C6.747 4.76004 6.211 4.26604 5.777 3.69704C5.506 3.96304 5.186 4.25304 4.834 4.51704ZM14.986 17.164L14.967 17.161C14.888 17.634 14.495 18 14 18H4C3.505 18 3.112 17.634 3.033 17.161L3.014 17.164L1.033 5.16104C1.023 5.10704 1 5.05704 1 5.00004C1 4.67304 1.167 4.39604 1.41 4.21404C1.41 4.21404 1.411 4.19504 1.497 4.15604C1.559 4.11804 1.621 4.08504 1.692 4.06204C2.126 3.85104 2.986 3.42904 3.702 2.86604C4.649 2.12104 5.22 1.46904 5.401 1.20104C5.51752 1.02852 5.86179 0.65627 6 0.358887C6 0.358887 7.523 3.36604 9 4.00704C10.476 3.36604 12 0.358887 12 0.358887C12.1301 0.652842 12.4572 1.01809 12.599 1.20104C12.6 1.20004 13.325 2.13604 14.298 2.86604C15.027 3.41304 15.874 3.85104 16.308 4.06204C16.379 4.08504 16.441 4.11804 16.503 4.15604C16.589 4.19504 16.59 4.21404 16.59 4.21404C16.833 4.39604 17 4.67304 17 5.00004C17 5.05704 16.977 5.10704 16.967 5.16104L14.986 17.164Z" fill="#272626"/>
</svg>
