<svg width="18" height="20" viewBox="0 0 18 20" fill="none" xmlns="http://www.w3.org/2000/svg">
<path fill-rule="evenodd" clip-rule="evenodd" d="M2 4H16V2H2V4ZM14 11V6H12C12 6.552 11.552 7 11 7C10.448 7 10 6.552 10 6H8C8 6.552 7.552 7 7 7C6.448 7 6 6.552 6 6H4V11H14ZM3 15H15V13H3V15ZM5 18C5.552 18 6 17.553 6 17H4C4 17.553 4.448 18 5 18ZM13 18C13.552 18 14 17.553 14 17H12C12 17.553 12.448 18 13 18ZM17 6H16V11C16.552 11 17 11.447 17 12V16C17 16.553 16.552 17 16 17C16 18.657 14.657 20 13 20C11.343 20 10 18.657 10 17H8C8 18.657 6.657 20 5 20C3.343 20 2 18.657 2 17C1.448 17 1 16.553 1 16V12C1 11.447 1.448 11 2 11V6H1C0.448 6 0 5.552 0 5V1C0 0.448 0.448 0 1 0H17C17.552 0 18 0.448 18 1V5C18 5.552 17.552 6 17 6Z" fill="#FF544F"/>
</svg>
