<svg width="20" height="20" viewBox="0 0 20 20" fill="none" xmlns="http://www.w3.org/2000/svg">
<path d="M11.0198 8.98018H18.9802C19.5434 8.98018 20 9.43677 20 10C20 10.5632 19.5434 11.0198 18.9802 11.0198H11.0198V18.9802C11.0198 19.5434 10.5632 20 10 20C9.43677 20 8.98018 19.5434 8.98018 18.9802V11.0198H1.01982C0.456589 11.0198 0 10.5632 0 10C0 9.43677 0.456589 8.98018 1.01982 8.98018H8.98018V1.01982C8.98018 0.456589 9.43677 0 10 0C10.5632 0 11.0198 0.456589 11.0198 1.01982V8.98018Z" fill="white"/>
</svg>
