<svg width="16" height="16" viewBox="0 0 16 16" fill="none" xmlns="http://www.w3.org/2000/svg">
<path fill-rule="evenodd" clip-rule="evenodd" d="M6 8V10H14V6H12C12 7.10457 11.1046 8 10 8H6ZM12 4H14C15.1046 4 16 4.89543 16 6V10C16 11.1046 15.1046 12 14 12H6C4.89543 12 4 11.1046 4 10V8H2C0.89543 8 0 7.10457 0 6V2C0 0.89543 0.89543 0 2 0H10C11.1046 0 12 0.89543 12 2V4ZM15 16C14.4477 16 14 15.5523 14 15C14 14.4477 14.4477 14 15 14C15.5523 14 16 14.4477 16 15C16 15.5523 15.5523 16 15 16ZM1 14H11C11.5523 14 12 14.4477 12 15C12 15.5523 11.5523 16 11 16H1C0.447715 16 0 15.5523 0 15C0 14.4477 0.447715 14 1 14ZM2 2V6H10V2H2Z" fill="#FDA740"/>
</svg>
