<svg width="16" height="16" viewBox="0 0 16 16" fill="none" xmlns="http://www.w3.org/2000/svg">
<path fill-rule="evenodd" clip-rule="evenodd" d="M6 8C6 6.896 6.896 6 8 6C9.104 6 10 6.896 10 8C10 9.104 9.104 10 8 10C6.896 10 6 9.104 6 8ZM12.701 4.13L10.851 5.199C10.351 4.69 9.712 4.326 9 4.142V2H7V4.142C6.288 4.326 5.649 4.69 5.149 5.199L3.304 4.134L2.304 5.866L4.161 6.938C4.066 7.278 4 7.63 4 8C4 8.37 4.066 8.722 4.16 9.062L2.309 10.131L3.309 11.862L5.148 10.8C5.648 11.31 6.288 11.674 7 11.858V14H9V11.858C9.712 11.674 10.351 11.31 10.851 10.801L12.696 11.866L13.696 10.134L11.839 9.062C11.934 8.722 12 8.37 12 8C12 7.63 11.934 7.277 11.839 6.937L13.701 5.862L12.701 4.13ZM13.999 8L14.696 8.402C15.653 8.954 15.98 10.178 15.428 11.134L14.428 12.866C13.876 13.822 12.653 14.15 11.696 13.598L11 13.196V14C11 15.104 10.104 16 9 16H7C5.896 16 5 15.104 5 14V13.195L4.309 13.595C3.352 14.146 2.129 13.819 1.576 12.862L0.576001 11.131C0.0240015 10.174 0.352001 8.951 1.309 8.398L1.999 8L1.304 7.598C0.347001 7.046 0.0200015 5.823 0.572001 4.866L1.572 3.134C2.124 2.177 3.347 1.85 4.304 2.402L5 2.804V2C5 0.896 5.896 0 7 0H9C10.104 0 11 0.896 11 2V2.803L11.701 2.398C12.657 1.846 13.88 2.174 14.433 3.13L15.433 4.862C15.985 5.819 15.657 7.042 14.701 7.595L13.999 8Z" fill="#F7D398"/>
</svg>
