<svg width="16" height="16" viewBox="0 0 16 16" fill="none" xmlns="http://www.w3.org/2000/svg">
<path fill-rule="evenodd" clip-rule="evenodd" d="M10.156 6.14L10.154 6.139L8 8.293L5.854 6.146C5.763 6.056 5.638 6 5.5 6C5.224 6 5 6.224 5 6.5C5 6.638 5.056 6.763 5.146 6.854L8 9.707L10.861 6.846L10.86 6.844C10.946 6.754 11 6.634 11 6.5C11 6.224 10.776 6 10.5 6C10.366 6 10.246 6.054 10.156 6.14ZM8.004 12.552L3.762 8.309C3.29 7.854 3.004 7.215 3.004 6.508C3.004 5.127 4.124 4.008 5.504 4.008C6.185 4.008 6.807 4.274 7.252 4.72C7.54 5.007 8 5.46733 8 5.46733C8 5.46733 8.485 4.992 8.762 4.715C9.206 4.271 9.827 4.008 10.504 4.008C11.885 4.008 13.004 5.127 13.004 6.508C13.004 7.215 12.719 7.854 12.247 8.309L8.004 12.552ZM14 3C14 2.448 13.552 2 13 2H3C2.448 2 2 2.448 2 3V13C2 13.553 2.448 14 3 14H13C13.552 14 14 13.553 14 13V3ZM3 16C1.343 16 0 14.657 0 13V3C0 1.343 1.343 0 3 0H13C14.657 0 16 1.343 16 3V13C16 14.657 14.657 16 13 16H3Z" fill="#E579E5"/>
</svg>
