<svg width="16" height="16" viewBox="0 0 16 16" fill="none" xmlns="http://www.w3.org/2000/svg">
<path fill-rule="evenodd" clip-rule="evenodd" d="M9 13H13C13.553 13 14 13.447 14 14C14 14.553 13.553 15 13 15H9C8.447 15 8 14.553 8 14C8 13.447 8.447 13 9 13ZM6 14C6 15.104 5.104 16 4 16C2.896 16 2 15.104 2 14C2 13.262 2.404 12.624 3 12.277V9.723C2.404 9.376 2 8.738 2 8C2 7.262 2.404 6.624 3 6.277V3.723C2.404 3.376 2 2.738 2 2C2 0.896 2.896 0 4 0C5.104 0 6 0.896 6 2C6 2.738 5.596 3.376 5 3.723V6.277C5.596 6.624 6 7.262 6 8C6 8.738 5.596 9.376 5 9.723V12.277C5.596 12.624 6 13.262 6 14ZM13 3H9C8.447 3 8 2.553 8 2C8 1.447 8.447 1 9 1H13C13.553 1 14 1.447 14 2C14 2.553 13.553 3 13 3ZM13 9H9C8.447 9 8 8.553 8 8C8 7.447 8.447 7 9 7H13C13.553 7 14 7.447 14 8C14 8.553 13.553 9 13 9Z" fill="#272626"/>
</svg>
