<svg width="7" height="11" viewBox="0 0 7 11" fill="none" xmlns="http://www.w3.org/2000/svg">
<path fill-rule="evenodd" clip-rule="evenodd" d="M0.853553 3.85355L3.5 1.20711L6.14645 3.85355C6.34171 4.04882 6.65829 4.04882 6.85355 3.85355C7.04882 3.65829 7.04882 3.34171 6.85355 3.14645L3.85355 0.146447C3.65829 -0.0488155 3.34171 -0.0488155 3.14645 0.146447L0.146447 3.14645C-0.0488155 3.34171 -0.0488155 3.65829 0.146447 3.85355C0.341709 4.04882 0.658291 4.04882 0.853553 3.85355ZM6.14645 7.14645L3.5 9.79289L0.853553 7.14645C0.658291 6.95118 0.341709 6.95118 0.146447 7.14645C-0.0488155 7.34171 -0.0488155 7.65829 0.146447 7.85355L3.14645 10.8536C3.34171 11.0488 3.65829 11.0488 3.85355 10.8536L6.85355 7.85355C7.04882 7.65829 7.04882 7.34171 6.85355 7.14645C6.65829 6.95118 6.34171 6.95118 6.14645 7.14645Z" fill="#272626"/>
</svg>
