<svg width="20" height="20" viewBox="0 0 20 20" fill="none" xmlns="http://www.w3.org/2000/svg">
<path fill-rule="evenodd" clip-rule="evenodd" d="M4 7C4.552 7 5 7.448 5 8C5 8.552 4.552 9 4 9H3C2.448 9 2 9.448 2 10V12C2.552 12 3 12.447 3 13V15C3 15.553 3.448 16 4 16H5C5.552 16 6 16.447 6 17C6 17.553 5.552 18 5 18H4C2.343 18 1 16.657 1 15V14C0.448 14 0 13.553 0 13V10C0 8.343 1.343 7 3 7H4ZM3.5 3C3.224 3 3 3.224 3 3.5C3 3.776 3.224 4 3.5 4C3.776 4 4 3.776 4 3.5C4 3.224 3.776 3 3.5 3ZM3.5 6C2.119 6 1 4.881 1 3.5C1 2.119 2.119 1 3.5 1C4.881 1 6 2.119 6 3.5C6 4.881 4.881 6 3.5 6ZM10 2C9.448 2 9 2.448 9 3C9 3.552 9.448 4 10 4C10.552 4 11 3.552 11 3C11 2.448 10.552 2 10 2ZM10 6C8.343 6 7 4.657 7 3C7 1.343 8.343 0 10 0C11.657 0 13 1.343 13 3C13 4.657 11.657 6 10 6ZM12 10C12 9.448 11.552 9 11 9H9C8.448 9 8 9.448 8 10V13C8.552 13 9 13.447 9 14V17C9 17.553 9.448 18 10 18C10.552 18 11 17.553 11 17V14C11 13.447 11.448 13 12 13V10ZM14 14C14 14.553 13.552 15 13 15V17C13 18.657 11.657 20 10 20C8.343 20 7 18.657 7 17V15C6.448 15 6 14.553 6 14V10C6 8.343 7.343 7 9 7H11C12.657 7 14 8.343 14 10V14ZM16.5 3C16.224 3 16 3.224 16 3.5C16 3.776 16.224 4 16.5 4C16.776 4 17 3.776 17 3.5C17 3.224 16.776 3 16.5 3ZM16.5 6C15.119 6 14 4.881 14 3.5C14 2.119 15.119 1 16.5 1C17.881 1 19 2.119 19 3.5C19 4.881 17.881 6 16.5 6ZM19 14V15C19 16.657 17.657 18 16 18H15C14.448 18 14 17.553 14 17C14 16.447 14.448 16 15 16H16C16.552 16 17 15.553 17 15V13C17 12.447 17.448 12 18 12V10C18 9.448 17.552 9 17 9H16C15.448 9 15 8.552 15 8C15 7.448 15.448 7 16 7H17C18.657 7 20 8.343 20 10V13C20 13.553 19.552 14 19 14Z" fill="#E579E5"/>
</svg>
