<svg width="14" height="20" viewBox="0 0 14 20" fill="none" xmlns="http://www.w3.org/2000/svg">
<path fill-rule="evenodd" clip-rule="evenodd" d="M7 2C5.343 2 4 3.343 4 5C4 6.657 5.343 8 7 8C8.657 8 10 6.657 10 5C10 3.343 8.657 2 7 2ZM7 10C4.239 10 2 7.761 2 5C2 2.239 4.239 0 7 0C9.761 0 12 2.239 12 5C12 7.761 9.761 10 7 10ZM12 15C12 14.447 11.552 14 11 14H3C2.448 14 2 14.447 2 15V18H12V15ZM13 20H1C0.448 20 0 19.553 0 19V15C0 13.343 1.343 12 3 12H11C12.657 12 14 13.343 14 15V19C14 19.553 13.552 20 13 20Z" fill="#32DC9B"/>
</svg>
