<svg width="16" height="16" viewBox="0 0 16 16" fill="none" xmlns="http://www.w3.org/2000/svg">
<path fill-rule="evenodd" clip-rule="evenodd" d="M2.61061 14.3918C0.464544 12.2477 0.46313 8.77195 2.60637 6.62503L8.12137 1.16018C9.68549 -0.389783 12.2099 -0.386957 13.7683 1.17007C15.3303 2.73064 15.3303 5.26117 13.7683 6.82173L9.05081 11.5349C8.07429 12.5105 6.49179 12.5105 5.51527 11.5349C4.65967 10.6801 4.53876 8.97824 5.51527 8.00262L8.81857 4.70236L10.2328 6.11527L6.92949 9.41554C6.73433 9.61052 6.73433 9.92701 6.92949 10.122C7.12465 10.317 7.44143 10.317 7.63659 10.122L12.3541 5.40882C13.1355 4.62818 13.1348 3.36292 12.3541 2.58299C11.5728 1.80235 10.307 1.80235 9.52568 2.58299L4.02483 8.0337C2.65799 9.39929 2.65799 11.6133 4.02483 12.9789C5.39166 14.3445 7.60774 14.3445 8.97457 12.9789L13.0612 8.9411L14.4754 10.354L10.3336 14.4469C8.17766 16.5345 4.73971 16.519 2.61061 14.3918Z" fill="#F7D398"/>
</svg>
