<svg width="16" height="16" viewBox="0 0 16 16" fill="none" xmlns="http://www.w3.org/2000/svg">
<path fill-rule="evenodd" clip-rule="evenodd" d="M9 14V12H7V14H9ZM11 14H14V12H11V14ZM9 8H7V10H9V8ZM11 8V10H14V8H11ZM5 14V12H2V14H5ZM5 8H2V10H5V8ZM12 4C12 4.552 11.552 5 11 5C10.448 5 10 4.552 10 4H6C6 4.552 5.552 5 5 5C4.448 5 4 4.552 4 4H2V6H14V4H12ZM1 16C0.448 16 0 15.552 0 15V3C0 2.448 0.448 2 1 2H4V1C4 0.448 4.448 0 5 0C5.552 0 6 0.448 6 1V2H10V1C10 0.448 10.448 0 11 0C11.552 0 12 0.448 12 1V2H15C15.552 2 16 2.448 16 3V15C16 15.552 15.552 16 15 16H1Z" fill="#32DC9B"/>
</svg>
